<svg id="Layer_1" data-name="Layer 1" xmlns="http://www.w3.org/2000/svg" xmlns:xlink="http://www.w3.org/1999/xlink" viewBox="0 0 168.75 125.55"><defs><style>.cls-1{fill:none;}.cls-2{clip-path:url(#clip-path);}.cls-3{fill:#0f151c;}</style><clipPath id="clip-path" transform="translate(-99.76 -104.56)"><rect class="cls-1" x="153.9" y="101.57" width="61.99" height="61.99"/></clipPath></defs><g class="cls-2"><path class="cls-3" d="M188.73,135.09c4.35,4.36,20,20,20,20l.05,0a3.11,3.11,0,1,1-4.4,4.39l0,0-19.32-19.32c-5.38,5.4-19.42,19.44-19.42,19.44l0,0a3.16,3.16,0,0,1-4.46,0l-.36-.37a3.13,3.13,0,0,1,0-4.45l.05,0s15.11-15.11,20-20c-2-2.69-5.15-5.8-10.28-5.85h0a7.89,7.89,0,0,1-5.47-2l-.37-.36L153.9,113.09l1.29-1.3,13.17,13.92,1.54-1.56-13.54-13.53,1.13-1.13,13.63,13.62,1.28-1.28-13.61-13.64L160,107l13.62,13.62,1.52-1.53-14.05-13.18,1.18-1.18,13,10.1s.47.4.63.56a8,8,0,0,1,2.29,6.51,12.37,12.37,0,0,0,6.35,10.34c3.44-2,7.28-5,7.75-7.8-1.83-3.41-1.27-10,3.73-15s12.22-6.83,17-2.15l.12.12c4.69,4.85,2.81,12.1-2.14,17.06s-11.58,5.56-15,3.73C193.48,128.6,190.69,131.89,188.73,135.09Z" transform="translate(-99.76 -104.56)"/></g><path class="cls-3" d="M120.64,191.48a6.11,6.11,0,0,1-.54,2.37,8.56,8.56,0,0,1-1.69,2.5,8.71,8.71,0,0,1-3,2,10.62,10.62,0,0,1-4.19.76,14.59,14.59,0,0,1-3.29-.34,9.46,9.46,0,0,1-2.7-1.07,8.82,8.82,0,0,1-2.22-1.91,11.36,11.36,0,0,1-1.55-2.42,12.26,12.26,0,0,1-1-2.85,15.09,15.09,0,0,1-.32-3.22,14.44,14.44,0,0,1,.8-4.95,10.55,10.55,0,0,1,2.31-3.74,10,10,0,0,1,3.51-2.37,11.46,11.46,0,0,1,4.3-.81,10.74,10.74,0,0,1,5,1.11,8.93,8.93,0,0,1,3.33,2.74,5.44,5.44,0,0,1,1.16,3.08,2,2,0,0,1-.57,1.41,1.75,1.75,0,0,1-1.35.61,1.89,1.89,0,0,1-1.34-.42,5.73,5.73,0,0,1-1-1.45,7,7,0,0,0-2.14-2.55,5.2,5.2,0,0,0-3-.85,5.47,5.47,0,0,0-4.55,2.18,9.81,9.81,0,0,0-1.7,6.17,11.43,11.43,0,0,0,.75,4.44,5.55,5.55,0,0,0,2.13,2.65,5.79,5.79,0,0,0,3.21.88,5.6,5.6,0,0,0,3.39-1,6,6,0,0,0,2.08-2.91,5.24,5.24,0,0,1,.74-1.48,1.65,1.65,0,0,1,1.4-.57,2,2,0,0,1,1.43.58A2,2,0,0,1,120.64,191.48Z" transform="translate(-99.76 -104.56)"/><path class="cls-3" d="M120.64,191.48h-.46a5.71,5.71,0,0,1-.5,2.19,7.94,7.94,0,0,1-1.61,2.36,8.12,8.12,0,0,1-2.8,1.89,10.18,10.18,0,0,1-4,.73,14.82,14.82,0,0,1-3.19-.33,8.44,8.44,0,0,1-4.68-2.84h0a10.83,10.83,0,0,1-1.49-2.32,11.78,11.78,0,0,1-.92-2.74,14.89,14.89,0,0,1-.32-3.13,13.9,13.9,0,0,1,.78-4.79,10.07,10.07,0,0,1,2.21-3.59,9.59,9.59,0,0,1,3.35-2.26,10.92,10.92,0,0,1,4.13-.78,10.28,10.28,0,0,1,4.74,1.06,8.64,8.64,0,0,1,3.17,2.6,5,5,0,0,1,1.07,2.82,1.56,1.56,0,0,1-.44,1.1,1.32,1.32,0,0,1-1,.46,1.47,1.47,0,0,1-1-.29,5.53,5.53,0,0,1-.9-1.34h0a7.46,7.46,0,0,0-2.28-2.71,5.67,5.67,0,0,0-3.28-.92,5.91,5.91,0,0,0-4.91,2.35,10.24,10.24,0,0,0-1.8,6.45,11.92,11.92,0,0,0,.79,4.62,6.13,6.13,0,0,0,2.3,2.86,6.28,6.28,0,0,0,3.46.94,6.06,6.06,0,0,0,3.65-1.07,6.5,6.5,0,0,0,2.25-3.13h0a4.52,4.52,0,0,1,.66-1.34,1.22,1.22,0,0,1,1-.39,1.54,1.54,0,0,1,1.11.45h0a1.44,1.44,0,0,1,.45,1.11h.92a2.4,2.4,0,0,0-.74-1.77h0a2.39,2.39,0,0,0-1.74-.7,2.09,2.09,0,0,0-1.76.75,5.17,5.17,0,0,0-.81,1.61l.43.14-.43-.16a5.45,5.45,0,0,1-1.92,2.7A5.19,5.19,0,0,1,111,195a5.43,5.43,0,0,1-3-.8,5.22,5.22,0,0,1-2-2.44,11,11,0,0,1-.71-4.27,9.34,9.34,0,0,1,1.6-5.89,5,5,0,0,1,4.19-2,4.79,4.79,0,0,1,2.77.76,6.56,6.56,0,0,1,2,2.39h0a6,6,0,0,0,1.09,1.57,2.31,2.31,0,0,0,1.65.55,2.26,2.26,0,0,0,1.69-.76,2.43,2.43,0,0,0,.68-1.72,5.84,5.84,0,0,0-1.24-3.35,9.33,9.33,0,0,0-3.49-2.88,11.16,11.16,0,0,0-5.16-1.16,11.74,11.74,0,0,0-4.47.85,10.43,10.43,0,0,0-3.67,2.47,11,11,0,0,0-2.41,3.9,14.92,14.92,0,0,0-.83,5.11,16.11,16.11,0,0,0,.33,3.32,12.66,12.66,0,0,0,1,2.95,11.82,11.82,0,0,0,1.61,2.51h0a9.2,9.2,0,0,0,2.34,2,9.74,9.74,0,0,0,2.82,1.13,15.65,15.65,0,0,0,3.4.35,11,11,0,0,0,4.37-.8,9.07,9.07,0,0,0,3.11-2.1,8.91,8.91,0,0,0,1.78-2.64,6.51,6.51,0,0,0,.58-2.54Z" transform="translate(-99.76 -104.56)"/><path class="cls-3" d="M137.15,175.42a12.26,12.26,0,0,1,6.12,1.44,9.49,9.49,0,0,1,3.87,4.11,14.08,14.08,0,0,1,1.31,6.26,15.31,15.31,0,0,1-.72,4.83,10.5,10.5,0,0,1-2.15,3.76,9.33,9.33,0,0,1-3.54,2.44,14,14,0,0,1-9.61,0,9.65,9.65,0,0,1-3.54-2.45,10.38,10.38,0,0,1-2.15-3.79,15.18,15.18,0,0,1-.73-4.8,15,15,0,0,1,.76-4.85,10.6,10.6,0,0,1,2.2-3.75,9.3,9.3,0,0,1,3.5-2.36A12.48,12.48,0,0,1,137.15,175.42Zm6.6,11.78a10.6,10.6,0,0,0-.82-4.36,6,6,0,0,0-2.32-2.79,6.66,6.66,0,0,0-6-.42,5.68,5.68,0,0,0-2,1.52,7.29,7.29,0,0,0-1.34,2.56,11.45,11.45,0,0,0-.49,3.49,11.77,11.77,0,0,0,.49,3.53,7.34,7.34,0,0,0,1.39,2.62,5.78,5.78,0,0,0,2.06,1.55,6.17,6.17,0,0,0,2.56.52,6.32,6.32,0,0,0,3.27-.89,6.16,6.16,0,0,0,2.37-2.75A10.62,10.62,0,0,0,143.75,187.2Z" transform="translate(-99.76 -104.56)"/><path class="cls-3" d="M137.15,175.42v.45a11.78,11.78,0,0,1,5.9,1.39,8.92,8.92,0,0,1,3.68,3.91,13.57,13.57,0,0,1,1.26,6.06,14.85,14.85,0,0,1-.69,4.68,10,10,0,0,1-2.06,3.61,9,9,0,0,1-3.37,2.32,12.41,12.41,0,0,1-4.62.81,12,12,0,0,1-4.64-.84,9,9,0,0,1-3.38-2.32,10,10,0,0,1-2.06-3.64,15.11,15.11,0,0,1-.7-4.65,14.57,14.57,0,0,1,.73-4.7,10,10,0,0,1,2.1-3.58,9.15,9.15,0,0,1,3.33-2.26,12.23,12.23,0,0,1,4.52-.79V175a13.06,13.06,0,0,0-4.85.85,10,10,0,0,0-3.67,2.48,10.82,10.82,0,0,0-2.29,3.92,15.05,15.05,0,0,0-.78,5,15.83,15.83,0,0,0,.74,4.94,11,11,0,0,0,2.25,4,10,10,0,0,0,3.71,2.56,14.35,14.35,0,0,0,10,0,9.78,9.78,0,0,0,3.7-2.55,10.88,10.88,0,0,0,2.26-3.93,16,16,0,0,0,.74-5,14.49,14.49,0,0,0-1.36-6.46,9.87,9.87,0,0,0-4.05-4.31,12.82,12.82,0,0,0-6.35-1.5Zm6.6,11.78h.45a11.1,11.1,0,0,0-.85-4.55,6.53,6.53,0,0,0-2.49-3,6.84,6.84,0,0,0-3.71-1,6.63,6.63,0,0,0-2.75.56,6.14,6.14,0,0,0-2.2,1.65,7.75,7.75,0,0,0-1.43,2.71,12.15,12.15,0,0,0-.51,3.63,12.47,12.47,0,0,0,.51,3.67,7.77,7.77,0,0,0,1.48,2.78,6.42,6.42,0,0,0,2.23,1.67,7,7,0,0,0,6.24-.4,6.6,6.6,0,0,0,2.56-2.95,11.15,11.15,0,0,0,.92-4.77h-.91a10.21,10.21,0,0,1-.84,4.38,5.82,5.82,0,0,1-7.6,2.9,5.22,5.22,0,0,1-1.91-1.43,6.91,6.91,0,0,1-1.3-2.46,11.43,11.43,0,0,1-.47-3.39,11.22,11.22,0,0,1,.47-3.36,6.91,6.91,0,0,1,1.26-2.39,5.12,5.12,0,0,1,1.87-1.4,5.63,5.63,0,0,1,2.38-.49,5.93,5.93,0,0,1,3.22.88,5.66,5.66,0,0,1,2.15,2.58,10.33,10.33,0,0,1,.77,4.18Z" transform="translate(-99.76 -104.56)"/><path class="cls-3" d="M164.77,175.42a12.31,12.31,0,0,1,6.12,1.44,9.41,9.41,0,0,1,3.86,4.11,14,14,0,0,1,1.32,6.26,15.31,15.31,0,0,1-.72,4.83,10.38,10.38,0,0,1-2.16,3.76,9.37,9.37,0,0,1-3.53,2.44,12.84,12.84,0,0,1-4.8.84,12.61,12.61,0,0,1-4.81-.86,9.6,9.6,0,0,1-3.55-2.45,10.53,10.53,0,0,1-2.15-3.79,15.47,15.47,0,0,1-.72-4.8,14.73,14.73,0,0,1,.76-4.85,10.43,10.43,0,0,1,2.19-3.75,9.46,9.46,0,0,1,3.5-2.36A12.57,12.57,0,0,1,164.77,175.42Zm6.59,11.78a10.77,10.77,0,0,0-.81-4.36,6.08,6.08,0,0,0-2.32-2.79,6.4,6.4,0,0,0-3.46-1,6.22,6.22,0,0,0-2.57.53,5.51,5.51,0,0,0-2,1.52,7.3,7.3,0,0,0-1.35,2.56,11.77,11.77,0,0,0-.49,3.49,12.09,12.09,0,0,0,.49,3.53,7.34,7.34,0,0,0,1.39,2.62,5.82,5.82,0,0,0,2.07,1.55,6.09,6.09,0,0,0,2.55.52,6.27,6.27,0,0,0,3.27-.89,6.17,6.17,0,0,0,2.38-2.75A10.63,10.63,0,0,0,171.36,187.2Z" transform="translate(-99.76 -104.56)"/><path class="cls-3" d="M164.77,175.42v.45a11.75,11.75,0,0,1,5.89,1.39,8.87,8.87,0,0,1,3.68,3.91,13.57,13.57,0,0,1,1.27,6.06,14.84,14.84,0,0,1-.7,4.68,10,10,0,0,1-2.06,3.61,9,9,0,0,1-3.36,2.32,12.43,12.43,0,0,1-4.63.81,12.07,12.07,0,0,1-4.64-.84,9,9,0,0,1-3.38-2.32,10.12,10.12,0,0,1-2.05-3.64,14.81,14.81,0,0,1-.71-4.65,14.3,14.3,0,0,1,.74-4.7,9.72,9.72,0,0,1,2.1-3.58,9.07,9.07,0,0,1,3.33-2.26,12.19,12.19,0,0,1,4.52-.79V175a13.11,13.11,0,0,0-4.86.85,9.94,9.94,0,0,0-3.66,2.48,10.84,10.84,0,0,0-2.3,3.92,15.31,15.31,0,0,0-.78,5,15.83,15.83,0,0,0,.75,4.94,10.93,10.93,0,0,0,2.24,4,10.06,10.06,0,0,0,3.72,2.56,14.35,14.35,0,0,0,10,0,9.94,9.94,0,0,0,3.7-2.55,11,11,0,0,0,2.25-3.93,15.66,15.66,0,0,0,.74-5,14.49,14.49,0,0,0-1.36-6.46,9.87,9.87,0,0,0-4-4.31,12.79,12.79,0,0,0-6.34-1.5Zm6.59,11.78h.46a11.26,11.26,0,0,0-.85-4.55,6.55,6.55,0,0,0-2.5-3,6.83,6.83,0,0,0-3.7-1,6.68,6.68,0,0,0-2.76.56,6.1,6.1,0,0,0-2.19,1.65,7.59,7.59,0,0,0-1.43,2.71,11.83,11.83,0,0,0-.52,3.63,12.15,12.15,0,0,0,.52,3.67,7.62,7.62,0,0,0,1.48,2.78,6.38,6.38,0,0,0,2.22,1.67,7,7,0,0,0,6.25-.4,6.64,6.64,0,0,0,2.55-2.95,11,11,0,0,0,.93-4.77h-.91a10.21,10.21,0,0,1-.84,4.38,5.65,5.65,0,0,1-2.2,2.55,6,6,0,0,1-5.41.35,5.27,5.27,0,0,1-1.9-1.43,6.75,6.75,0,0,1-1.3-2.46,11.43,11.43,0,0,1-.47-3.39,11.22,11.22,0,0,1,.47-3.36,6.73,6.73,0,0,1,1.25-2.39,5.2,5.2,0,0,1,1.87-1.4,5.71,5.71,0,0,1,2.39-.49,5.93,5.93,0,0,1,3.22.88,5.58,5.58,0,0,1,2.14,2.58,10.33,10.33,0,0,1,.78,4.18Z" transform="translate(-99.76 -104.56)"/><path class="cls-3" d="M187,178.23v8l9.11-9.5a7.59,7.59,0,0,1,1.11-1,2.08,2.08,0,0,1,1.23-.33,2.25,2.25,0,0,1,1.62.58,1.91,1.91,0,0,1,.62,1.43,2.85,2.85,0,0,1-1,2L194,184.79l6.5,9.31a12,12,0,0,1,1,1.7,3.27,3.27,0,0,1,.34,1.41,1.76,1.76,0,0,1-.6,1.33,2.26,2.26,0,0,1-1.63.56,2.73,2.73,0,0,1-1.58-.41,3.41,3.41,0,0,1-1-1.1l-.75-1.25-5.49-8.44L187,191.54v4.74a3,3,0,0,1-.66,2.13,2.23,2.23,0,0,1-1.69.69,2.3,2.3,0,0,1-2-1.15,2.83,2.83,0,0,1-.27-1c0-.38,0-.94,0-1.67v-17a3.13,3.13,0,0,1,.61-2.11,2.14,2.14,0,0,1,1.68-.7,2.22,2.22,0,0,1,1.7.69A3,3,0,0,1,187,178.23Z" transform="translate(-99.76 -104.56)"/><path class="cls-3" d="M187,178.23h-.46v9.17l9.9-10.32a7.29,7.29,0,0,1,1.05-1,1.6,1.6,0,0,1,1-.25,1.82,1.82,0,0,1,1.3.46,1.46,1.46,0,0,1,.48,1.1,2.4,2.4,0,0,1-.91,1.69l-5.92,5.61,6.72,9.64h0a11.84,11.84,0,0,1,1,1.63h0a3,3,0,0,1,.3,1.22,1.34,1.34,0,0,1-.46,1,1.88,1.88,0,0,1-1.32.44,2.29,2.29,0,0,1-1.32-.34,3,3,0,0,1-.9-1l-.75-1.24h0l-5.79-8.91-4.34,4.16v4.93a2.63,2.63,0,0,1-.53,1.82,1.78,1.78,0,0,1-1.36.55,1.85,1.85,0,0,1-1.58-.92l-.4.22.41-.21a2.25,2.25,0,0,1-.22-.84c0-.37-.05-.92-.05-1.64v-17a2.68,2.68,0,0,1,.51-1.81,1.66,1.66,0,0,1,1.33-.55,1.83,1.83,0,0,1,1.37.55,2.62,2.62,0,0,1,.52,1.81h.91a3.42,3.42,0,0,0-.77-2.43,2.64,2.64,0,0,0-2-.84,2.59,2.59,0,0,0-2,.86,3.58,3.58,0,0,0-.73,2.41v17c0,.74,0,1.3.05,1.71a3,3,0,0,0,.31,1.18h0a2.7,2.7,0,0,0,1,1,2.75,2.75,0,0,0,1.36.37,2.64,2.64,0,0,0,2-.84,3.43,3.43,0,0,0,.78-2.44v-4.54l3.26-3.13,5.19,8,.38-.25-.4.23c.22.38.48.8.76,1.26a4.06,4.06,0,0,0,1.16,1.24,3.22,3.22,0,0,0,1.84.49,2.79,2.79,0,0,0,1.94-.68,2.25,2.25,0,0,0,.75-1.67,3.84,3.84,0,0,0-.39-1.61h0a11.36,11.36,0,0,0-1.07-1.76h0l-6.27-9,5.36-5.07h0a3.3,3.3,0,0,0,1.19-2.35,2.32,2.32,0,0,0-.76-1.76,2.73,2.73,0,0,0-1.93-.71,2.53,2.53,0,0,0-1.49.41,8.27,8.27,0,0,0-1.18,1.08l-8.33,8.67v-6.89Z" transform="translate(-99.76 -104.56)"/><path class="cls-3" d="M208.44,196.28V178.23a3.08,3.08,0,0,1,.64-2.11,2.14,2.14,0,0,1,1.66-.7,2.24,2.24,0,0,1,1.7.69,3,3,0,0,1,.64,2.12v18.05a3.05,3.05,0,0,1-.64,2.12,2.21,2.21,0,0,1-1.7.7,2.11,2.11,0,0,1-1.65-.71A3,3,0,0,1,208.44,196.28Z" transform="translate(-99.76 -104.56)"/><path class="cls-3" d="M208.44,196.28h.46V178.23a2.61,2.61,0,0,1,.52-1.8,1.69,1.69,0,0,1,1.32-.56,1.79,1.79,0,0,1,1.36.55,2.62,2.62,0,0,1,.53,1.81v18.05a2.62,2.62,0,0,1-.53,1.81,1.76,1.76,0,0,1-1.36.56,1.69,1.69,0,0,1-1.31-.56,2.6,2.6,0,0,1-.53-1.81H208a3.47,3.47,0,0,0,.77,2.42,2.55,2.55,0,0,0,2,.86,2.62,2.62,0,0,0,2-.85,3.48,3.48,0,0,0,.77-2.43V178.23a3.46,3.46,0,0,0-.77-2.43,2.64,2.64,0,0,0-2-.84,2.58,2.58,0,0,0-2,.85,3.47,3.47,0,0,0-.76,2.42v18.05Z" transform="translate(-99.76 -104.56)"/><path class="cls-3" d="M226.59,178.2l8.92,13.5V178.07a3,3,0,0,1,.57-2,1.94,1.94,0,0,1,1.54-.66,2,2,0,0,1,1.58.66,3,3,0,0,1,.58,2v18c0,2-.84,3-2.5,3a3.35,3.35,0,0,1-1.13-.18,2.69,2.69,0,0,1-.93-.57,5.15,5.15,0,0,1-.82-.91c-.25-.35-.5-.7-.75-1.07L225,183v13.42a2.83,2.83,0,0,1-.61,2,2,2,0,0,1-1.56.67,2,2,0,0,1-1.58-.68,2.88,2.88,0,0,1-.59-2V178.78a5,5,0,0,1,.25-1.77,2.47,2.47,0,0,1,1-1.15,2.73,2.73,0,0,1,1.49-.44,2.52,2.52,0,0,1,1.07.2,2.83,2.83,0,0,1,.78.55,5.41,5.41,0,0,1,.68.89C226.1,177.42,226.34,177.8,226.59,178.2Z" transform="translate(-99.76 -104.56)"/><path class="cls-3" d="M226.59,178.2l-.38.25L236,193.22V178.07a2.55,2.55,0,0,1,.46-1.69,1.48,1.48,0,0,1,1.19-.51,1.55,1.55,0,0,1,1.24.51,2.55,2.55,0,0,1,.46,1.69v18a3,3,0,0,1-.52,2,1.84,1.84,0,0,1-1.52.59,2.81,2.81,0,0,1-1-.16,2.13,2.13,0,0,1-.79-.48h0a4.72,4.72,0,0,1-.74-.84c-.25-.34-.5-.7-.75-1.06l-.38.26.39-.25-9.55-14.63v15a2.4,2.4,0,0,1-.49,1.68,1.57,1.57,0,0,1-1.22.52,1.55,1.55,0,0,1-1.24-.53,2.5,2.5,0,0,1-.48-1.67V178.78a4.72,4.72,0,0,1,.22-1.6l-.42-.17.42.18a2,2,0,0,1,.81-.94,2.23,2.23,0,0,1,1.24-.38,2,2,0,0,1,.88.17,2.18,2.18,0,0,1,.64.45h0a5.6,5.6,0,0,1,.63.81c.23.37.48.75.72,1.14h0l.38-.25L227,178c-.25-.39-.5-.77-.73-1.14a6,6,0,0,0-.75-1h0a3.09,3.09,0,0,0-.91-.65,3.27,3.27,0,0,0-3,.28,3,3,0,0,0-1.15,1.35h0a5.41,5.41,0,0,0-.28,1.94v17.67a3.35,3.35,0,0,0,.71,2.28,2.44,2.44,0,0,0,1.92.83,2.46,2.46,0,0,0,1.9-.82,3.3,3.3,0,0,0,.73-2.29V184.56l7.86,12.06h0q.38.56.75,1.08a6.48,6.48,0,0,0,.88,1h0a3.25,3.25,0,0,0,1.09.66,3.78,3.78,0,0,0,1.28.21,2.71,2.71,0,0,0,2.22-.92,3.93,3.93,0,0,0,.74-2.55v-18a3.5,3.5,0,0,0-.69-2.29,2.45,2.45,0,0,0-1.93-.82,2.38,2.38,0,0,0-1.88.82,3.4,3.4,0,0,0-.68,2.29v12.11L227,178l-.38.25L227,178Z" transform="translate(-99.76 -104.56)"/><path class="cls-3" d="M268.06,189.4v4.39a4.41,4.41,0,0,1-.18,1.4,2.2,2.2,0,0,1-.63.95,6.05,6.05,0,0,1-1.18.81,18.28,18.28,0,0,1-4,1.64,16.31,16.31,0,0,1-4.19.51,13.68,13.68,0,0,1-4.81-.81,10.08,10.08,0,0,1-3.7-2.36,10.31,10.31,0,0,1-2.35-3.75,14,14,0,0,1-.82-4.92,14.41,14.41,0,0,1,.79-4.89,9.89,9.89,0,0,1,6.11-6.13,14.38,14.38,0,0,1,5-.82,12.54,12.54,0,0,1,4.1.61,9.05,9.05,0,0,1,2.89,1.56,6.86,6.86,0,0,1,1.67,2,4,4,0,0,1,.56,1.86,2,2,0,0,1-.64,1.49,2.21,2.21,0,0,1-2.52.39,2.14,2.14,0,0,1-.77-.66,19.51,19.51,0,0,0-1.46-2,4.73,4.73,0,0,0-1.6-1.16,6.16,6.16,0,0,0-2.57-.46,7.06,7.06,0,0,0-2.87.55,6,6,0,0,0-2.17,1.61,7,7,0,0,0-1.37,2.59,11.29,11.29,0,0,0-.48,3.39,9.33,9.33,0,0,0,1.85,6.2,6.43,6.43,0,0,0,5.17,2.17,10.55,10.55,0,0,0,3-.42,15.4,15.4,0,0,0,2.87-1.2v-3.72h-3.6a3.94,3.94,0,0,1-2-.39,1.43,1.43,0,0,1-.66-1.33,1.64,1.64,0,0,1,.55-1.27,2.18,2.18,0,0,1,1.51-.5h5.27a7,7,0,0,1,1.64.17,1.86,1.86,0,0,1,1.08.77A3.1,3.1,0,0,1,268.06,189.4Z" transform="translate(-99.76 -104.56)"/><path class="cls-3" d="M268.06,189.4h-.46v4.39a4.3,4.3,0,0,1-.15,1.26h0a1.77,1.77,0,0,1-.51.75,5.4,5.4,0,0,1-1.09.75,18.59,18.59,0,0,1-3.9,1.6,15.7,15.7,0,0,1-4.07.5,13.19,13.19,0,0,1-4.65-.79,9.51,9.51,0,0,1-5.78-5.84,13.42,13.42,0,0,1-.8-4.76,14,14,0,0,1,.77-4.74,9.46,9.46,0,0,1,5.84-5.85,13.85,13.85,0,0,1,4.87-.8,11.8,11.8,0,0,1,3.95.6,8.3,8.3,0,0,1,2.74,1.47,6.28,6.28,0,0,1,1.57,1.85,3.68,3.68,0,0,1,.51,1.64,1.54,1.54,0,0,1-.51,1.16,1.68,1.68,0,0,1-1.24.49,1.54,1.54,0,0,1-.75-.18,1.73,1.73,0,0,1-.62-.52l-.36.27.38-.25a19.78,19.78,0,0,0-1.49-2.08,5.21,5.21,0,0,0-1.76-1.27,6.51,6.51,0,0,0-2.76-.51,7.56,7.56,0,0,0-3.06.59,6.61,6.61,0,0,0-2.33,1.73,7.78,7.78,0,0,0-1.46,2.75,12,12,0,0,0-.5,3.53,9.8,9.8,0,0,0,2,6.5,7,7,0,0,0,5.52,2.33,11.15,11.15,0,0,0,3.15-.44,15.73,15.73,0,0,0,2.95-1.24l.24-.13v-4.45h-4.05a3.52,3.52,0,0,1-1.73-.33h0a.84.84,0,0,1-.32-.33,1.38,1.38,0,0,1-.12-.6,1.19,1.19,0,0,1,.41-.93,1.71,1.71,0,0,1,1.2-.38h5.27a6.31,6.31,0,0,1,1.52.16,1.42,1.42,0,0,1,.83.58,2.79,2.79,0,0,1,.33,1.52h.91a3.59,3.59,0,0,0-.49-2,2.32,2.32,0,0,0-1.35-1,7,7,0,0,0-1.75-.18h-5.27a2.6,2.6,0,0,0-1.81.61,2.1,2.1,0,0,0-.71,1.61,2.36,2.36,0,0,0,.21,1,1.75,1.75,0,0,0,.68.72h0a4.38,4.38,0,0,0,2.19.45h3.14v3.27h.46l-.22-.41a14.5,14.5,0,0,1-2.78,1.17,10,10,0,0,1-2.89.4,5.93,5.93,0,0,1-4.82-2,8.82,8.82,0,0,1-1.74-5.9,11,11,0,0,1,.45-3.26,7,7,0,0,1,1.29-2.42,5.42,5.42,0,0,1,2-1.49,6.65,6.65,0,0,1,2.69-.52,5.6,5.6,0,0,1,2.38.43,4.33,4.33,0,0,1,1.45,1,17.2,17.2,0,0,1,1.41,2h0a2.58,2.58,0,0,0,2.1,1.08,2.69,2.69,0,0,0,1.87-.74,2.47,2.47,0,0,0,.79-1.83,4.4,4.4,0,0,0-.62-2.07,7.12,7.12,0,0,0-1.78-2.12,9.46,9.46,0,0,0-3-1.64,13,13,0,0,0-4.25-.64,14.91,14.91,0,0,0-5.19.85,10.82,10.82,0,0,0-3.93,2.47,10.61,10.61,0,0,0-2.45,3.94,14.8,14.8,0,0,0-.82,5,14.4,14.4,0,0,0,.85,5.08,10.92,10.92,0,0,0,2.45,3.91,10.62,10.62,0,0,0,3.87,2.47,14.2,14.2,0,0,0,5,.84,16.37,16.37,0,0,0,4.31-.53,19,19,0,0,0,4.1-1.68,6,6,0,0,0,1.27-.88,2.61,2.61,0,0,0,.76-1.14h0a4.9,4.9,0,0,0,.19-1.54V189.4Z" transform="translate(-99.76 -104.56)"/><path class="cls-3" d="M158.63,227.25a2.63,2.63,0,0,1-.42,1.47,2.8,2.8,0,0,1-1.23,1,4.78,4.78,0,0,1-1.93.37,4.33,4.33,0,0,1-2.21-.51,3,3,0,0,1-1-1,2.2,2.2,0,0,1-.39-1.18.78.78,0,0,1,.24-.57.77.77,0,0,1,.58-.24.66.66,0,0,1,.49.19,1.4,1.4,0,0,1,.35.54,3.81,3.81,0,0,0,.37.73,1.45,1.45,0,0,0,.56.47,2,2,0,0,0,1,.19,2.11,2.11,0,0,0,1.32-.38,1.14,1.14,0,0,0,.51-.94,1,1,0,0,0-.28-.73,1.77,1.77,0,0,0-.7-.43,11.22,11.22,0,0,0-1.17-.32,8.67,8.67,0,0,1-1.63-.53,2.68,2.68,0,0,1-1-.83,2.14,2.14,0,0,1-.38-1.31A2.27,2.27,0,0,1,152,222a2.65,2.65,0,0,1,1.18-.89,5,5,0,0,1,1.81-.31,4.38,4.38,0,0,1,1.44.21,3,3,0,0,1,1,.55,2,2,0,0,1,.58.72,1.56,1.56,0,0,1,.19.73.89.89,0,0,1-.23.59.77.77,0,0,1-.58.26.65.65,0,0,1-.48-.16,2.29,2.29,0,0,1-.35-.51,2.29,2.29,0,0,0-.59-.8,1.74,1.74,0,0,0-1.11-.29,2,2,0,0,0-1.14.31.92.92,0,0,0-.44.75.75.75,0,0,0,.15.47,1.28,1.28,0,0,0,.41.34,2.62,2.62,0,0,0,.52.22l.87.24a12.41,12.41,0,0,1,1.39.39,4.28,4.28,0,0,1,1.05.52,2.21,2.21,0,0,1,.68.78A2.55,2.55,0,0,1,158.63,227.25Z" transform="translate(-99.76 -104.56)"/><path class="cls-3" d="M160.92,222.49a.91.91,0,0,1-.6-.21.83.83,0,0,1,0-1.2.81.81,0,0,1,.59-.23.88.88,0,0,1,.58.21.74.74,0,0,1,.25.61.77.77,0,0,1-.24.6A.85.85,0,0,1,160.92,222.49Zm.83,1.74v4.86a1.11,1.11,0,0,1-.24.77.8.8,0,0,1-.61.26.77.77,0,0,1-.6-.27,1.15,1.15,0,0,1-.23-.76v-4.81a1.1,1.1,0,0,1,.23-.75.83.83,0,0,1,1.21,0A1,1,0,0,1,161.75,224.23Z" transform="translate(-99.76 -104.56)"/><path class="cls-3" d="M165,224.21v.2a2.87,2.87,0,0,1,1-.86,2.6,2.6,0,0,1,1.21-.28,2.47,2.47,0,0,1,1.19.29,1.87,1.87,0,0,1,.78.82,2,2,0,0,1,.22.67,7.39,7.39,0,0,1,.05.91v3.13a1.16,1.16,0,0,1-.23.77.79.79,0,0,1-.6.26.76.76,0,0,1-.61-.27,1.1,1.1,0,0,1-.24-.76v-2.8a2.9,2.9,0,0,0-.23-1.28.94.94,0,0,0-.92-.44,1.37,1.37,0,0,0-.82.27,1.51,1.51,0,0,0-.54.74,5.27,5.27,0,0,0-.13,1.4v2.11a1.14,1.14,0,0,1-.23.77.82.82,0,0,1-.62.26.74.74,0,0,1-.59-.27,1.1,1.1,0,0,1-.24-.76v-4.86a1.07,1.07,0,0,1,.21-.72.72.72,0,0,1,.57-.24.75.75,0,0,1,.4.11.73.73,0,0,1,.29.31A1.14,1.14,0,0,1,165,224.21Z" transform="translate(-99.76 -104.56)"/><path class="cls-3" d="M177.15,228a1.49,1.49,0,0,1-.19.67,2.38,2.38,0,0,1-.57.68,3.09,3.09,0,0,1-1,.53,4.17,4.17,0,0,1-1.32.19,3.23,3.23,0,0,1-2.44-.91,3.35,3.35,0,0,1-.87-2.43,4,4,0,0,1,.4-1.83,2.87,2.87,0,0,1,1.16-1.23,3.57,3.57,0,0,1,1.81-.44,3.87,3.87,0,0,1,1.2.19,3,3,0,0,1,.92.5,2.29,2.29,0,0,1,.58.64,1.32,1.32,0,0,1,.2.64.67.67,0,0,1-.22.51.79.79,0,0,1-.55.21.58.58,0,0,1-.35-.11,1.93,1.93,0,0,1-.31-.35,2.59,2.59,0,0,0-.64-.7,1.6,1.6,0,0,0-2.06.35,2.55,2.55,0,0,0-.45,1.59,3.34,3.34,0,0,0,.11.87,2,2,0,0,0,.34.68,1.49,1.49,0,0,0,.54.43,1.74,1.74,0,0,0,.69.14,1.58,1.58,0,0,0,.86-.23,2,2,0,0,0,.64-.72,1.81,1.81,0,0,1,.34-.44.59.59,0,0,1,.43-.16.65.65,0,0,1,.51.23A.76.76,0,0,1,177.15,228Z" transform="translate(-99.76 -104.56)"/><path class="cls-3" d="M183.31,227.11H180a2.18,2.18,0,0,0,.23,1,1.61,1.61,0,0,0,.6.66,1.55,1.55,0,0,0,.82.22,1.88,1.88,0,0,0,.55-.07,1.94,1.94,0,0,0,.49-.22,3.5,3.5,0,0,0,.43-.33l.51-.46a.53.53,0,0,1,.37-.12.6.6,0,0,1,.42.15.48.48,0,0,1,.16.4,1.08,1.08,0,0,1-.18.53,2.07,2.07,0,0,1-.54.58,2.94,2.94,0,0,1-.9.47,4.07,4.07,0,0,1-1.26.19,3.34,3.34,0,0,1-2.52-.93,3.45,3.45,0,0,1-.9-2.51,4.12,4.12,0,0,1,.22-1.38,3,3,0,0,1,.65-1.09,2.79,2.79,0,0,1,1.05-.71,3.77,3.77,0,0,1,1.38-.24,3.26,3.26,0,0,1,1.69.42,2.79,2.79,0,0,1,1.06,1.07,2.89,2.89,0,0,1,.35,1.35.83.83,0,0,1-.37.82A2.31,2.31,0,0,1,183.31,227.11Zm-3.29-1h3a2.05,2.05,0,0,0-.47-1.29,1.39,1.39,0,0,0-1.06-.43,1.34,1.34,0,0,0-1,.44A2.15,2.15,0,0,0,180,226.15Z" transform="translate(-99.76 -104.56)"/><path class="cls-3" d="M192.47,229.12v-5.61a5.1,5.1,0,0,1-2.11,1.2.63.63,0,0,1-.46-.21.65.65,0,0,1-.2-.47.56.56,0,0,1,.2-.47,4.54,4.54,0,0,1,.69-.38,5.07,5.07,0,0,0,1.2-.74,5.45,5.45,0,0,0,.79-.87c.23-.32.38-.51.45-.59a.55.55,0,0,1,.39-.11.66.66,0,0,1,.53.25,1.12,1.12,0,0,1,.19.7v7.06c0,.82-.28,1.24-.84,1.24a.76.76,0,0,1-.6-.26A1,1,0,0,1,192.47,229.12Z" transform="translate(-99.76 -104.56)"/><path class="cls-3" d="M201.55,225.91a3,3,0,0,1-.91.73,2.57,2.57,0,0,1-1.11.24,2.63,2.63,0,0,1-1.95-.85,2.77,2.77,0,0,1-.57-.95,3.28,3.28,0,0,1-.2-1.13,3.24,3.24,0,0,1,.23-1.2,2.84,2.84,0,0,1,.63-1,3,3,0,0,1,1-.66,3.4,3.4,0,0,1,1.26-.23,3.37,3.37,0,0,1,1.42.29,2.69,2.69,0,0,1,1,.84,4,4,0,0,1,.65,1.39,7.33,7.33,0,0,1,.23,1.9,8.23,8.23,0,0,1-.24,2.09,4.31,4.31,0,0,1-.7,1.51,2.89,2.89,0,0,1-1.1.91,3.39,3.39,0,0,1-1.45.3,3.07,3.07,0,0,1-1.4-.3,2.53,2.53,0,0,1-.9-.76,1.57,1.57,0,0,1-.3-.87.63.63,0,0,1,.19-.46.61.61,0,0,1,.48-.21.84.84,0,0,1,.49.15,1,1,0,0,1,.33.46,1.25,1.25,0,0,0,.45.59,1.18,1.18,0,0,0,.71.23,1.31,1.31,0,0,0,.66-.18,1.63,1.63,0,0,0,.54-.51A5,5,0,0,0,201.55,225.91Zm-.14-1.88a2.45,2.45,0,0,0-.12-.78,1.78,1.78,0,0,0-.32-.61,1.6,1.6,0,0,0-.49-.41,1.33,1.33,0,0,0-.63-.15,1.22,1.22,0,0,0-1,.51,2,2,0,0,0-.41,1.33,2,2,0,0,0,.41,1.3,1.26,1.26,0,0,0,1,.49,1.49,1.49,0,0,0,.73-.2,1.67,1.67,0,0,0,.57-.58A1.87,1.87,0,0,0,201.41,224Z" transform="translate(-99.76 -104.56)"/><path class="cls-3" d="M204.75,223.22a2.12,2.12,0,0,1,.34-1.16,2.34,2.34,0,0,1,1-.88,3.47,3.47,0,0,1,1.52-.32,3.89,3.89,0,0,1,1.29.19,2.63,2.63,0,0,1,.93.53,2.17,2.17,0,0,1,.54.75,2.3,2.3,0,0,1,.18.9,1.92,1.92,0,0,1-.31,1.08,2.34,2.34,0,0,1-.93.78,2.51,2.51,0,0,1,.87.53,2.07,2.07,0,0,1,.52.76,2.5,2.5,0,0,1,.18,1,2.73,2.73,0,0,1-.38,1.41,2.53,2.53,0,0,1-1.1,1,4,4,0,0,1-1.71.35,4,4,0,0,1-1.75-.35,2.53,2.53,0,0,1-1.1-1,2.64,2.64,0,0,1-.37-1.4,2.25,2.25,0,0,1,1.56-2.27A2,2,0,0,1,204.75,223.22Zm4.42,4.08a1.74,1.74,0,0,0-.2-.84,1.33,1.33,0,0,0-.55-.55,1.66,1.66,0,0,0-.8-.19,1.46,1.46,0,0,0-1.06.42,1.58,1.58,0,0,0-.42,1.17,1.81,1.81,0,0,0,.2.85,1.48,1.48,0,0,0,.54.57,1.55,1.55,0,0,0,.77.2,1.47,1.47,0,0,0,.78-.21,1.35,1.35,0,0,0,.54-.57A1.81,1.81,0,0,0,209.17,227.3ZM207.63,222a1.23,1.23,0,0,0-.93.36,1.25,1.25,0,0,0-.36.92,1.16,1.16,0,0,0,.37.88,1.29,1.29,0,0,0,.93.34,1.51,1.51,0,0,0,.53-.09,1.41,1.41,0,0,0,.41-.25,1.16,1.16,0,0,0,.26-.39,1.35,1.35,0,0,0,.09-.5,1.28,1.28,0,0,0-.16-.65,1.2,1.2,0,0,0-.46-.46A1.39,1.39,0,0,0,207.63,222Z" transform="translate(-99.76 -104.56)"/><path class="cls-3" d="M214.87,224.51a1.45,1.45,0,0,0,1-.34,1.13,1.13,0,0,0,.41-.95,1.13,1.13,0,0,0-1.21-1.16,1.43,1.43,0,0,0-.62.11.9.9,0,0,0-.38.27,3,3,0,0,0-.27.45l-.23.51a.44.44,0,0,1-.22.2.87.87,0,0,1-.37.07.59.59,0,0,1-.45-.2.69.69,0,0,1-.21-.53,1.37,1.37,0,0,1,.19-.67,2.38,2.38,0,0,1,.57-.68,3,3,0,0,1,.93-.51,3.71,3.71,0,0,1,1.24-.2,3.41,3.41,0,0,1,1.09.17,2.42,2.42,0,0,1,.85.47,1.87,1.87,0,0,1,.55.71,2,2,0,0,1,.19.88,2,2,0,0,1-.27,1.06,3.33,3.33,0,0,1-.77.85,3.41,3.41,0,0,1,.81.6,2.21,2.21,0,0,1,.5.73,2.29,2.29,0,0,1,.17.87,2.77,2.77,0,0,1-.89,2,3,3,0,0,1-1,.64,3.54,3.54,0,0,1-1.33.24,3.11,3.11,0,0,1-1.32-.27,3.19,3.19,0,0,1-1-.66,3.08,3.08,0,0,1-.57-.83,1.75,1.75,0,0,1-.2-.7.72.72,0,0,1,.24-.57.77.77,0,0,1,.57-.22.61.61,0,0,1,.34.1.5.5,0,0,1,.2.24,4.5,4.5,0,0,0,.69,1.28,1.33,1.33,0,0,0,1,.41,1.51,1.51,0,0,0,.74-.19,1.55,1.55,0,0,0,.59-.55,1.65,1.65,0,0,0,.23-.86,1.53,1.53,0,0,0-.4-1.13,1.42,1.42,0,0,0-1.09-.41l-.39,0-.33,0a.74.74,0,0,1-.52-.17.6.6,0,0,1-.19-.47.61.61,0,0,1,.22-.48,1,1,0,0,1,.66-.18Z" transform="translate(-99.76 -104.56)"/></svg>